<svg xmlns="http://www.w3.org/2000/svg" xmlns:xlink="http://www.w3.org/1999/xlink" width="500" zoomAndPan="magnify" viewBox="0 0 375 374.999991" height="500" preserveAspectRatio="xMidYMid meet" version="1.2"><defs><clipPath id="efbee4f384"><path d="M 148 220.210938 L 226.09375 220.210938 L 226.09375 374.988281 L 148 374.988281 Z M 148 220.210938 "/></clipPath><clipPath id="e1fe01c711"><path d="M 34 196 L 168 196 L 168 286 L 34 286 Z M 34 196 "/></clipPath><clipPath id="ffc36029d7"><path d="M 53.992188 313.269531 L 14.597656 245.492188 L 148.414062 167.714844 L 187.804688 235.492188 Z M 53.992188 313.269531 "/></clipPath><clipPath id="731f4fec08"><path d="M 53.992188 313.269531 L 14.597656 245.492188 L 148.414062 167.714844 L 187.804688 235.492188 Z M 53.992188 313.269531 "/></clipPath><clipPath id="8fa1b5ea82"><path d="M 206 193 L 342 193 L 342 283 L 206 283 Z M 206 193 "/></clipPath><clipPath id="cd24f7e709"><path d="M 360.257812 242.152344 L 321.660156 310.382812 L 186.945312 234.179688 L 225.542969 165.945312 Z M 360.257812 242.152344 "/></clipPath><clipPath id="b01e9ce823"><path d="M 360.257812 242.152344 L 321.660156 310.382812 L 186.945312 234.179688 L 225.542969 165.945312 Z M 360.257812 242.152344 "/></clipPath><clipPath id="0d0ed72565"><path d="M 148.890625 0 L 227 0 L 227 154.777344 L 148.890625 154.777344 Z M 148.890625 0 "/></clipPath><clipPath id="9a9d4c21cc"><path d="M 207 89 L 341 89 L 341 179 L 207 179 Z M 207 89 "/></clipPath><clipPath id="15685cf435"><path d="M 320.992188 61.71875 L 360.386719 129.496094 L 226.570312 207.269531 L 187.179688 139.492188 Z M 320.992188 61.71875 "/></clipPath><clipPath id="249ae2a44e"><path d="M 320.992188 61.71875 L 360.386719 129.496094 L 226.570312 207.269531 L 187.179688 139.492188 Z M 320.992188 61.71875 "/></clipPath><clipPath id="a7caa7dc83"><path d="M 33 92 L 169 92 L 169 182 L 33 182 Z M 33 92 "/></clipPath><clipPath id="15baba22e3"><path d="M 14.726562 132.835938 L 53.324219 64.601562 L 188.039062 140.808594 L 149.441406 209.042969 Z M 14.726562 132.835938 "/></clipPath><clipPath id="3ae4e3a350"><path d="M 14.726562 132.835938 L 53.324219 64.601562 L 188.039062 140.808594 L 149.441406 209.042969 Z M 14.726562 132.835938 "/></clipPath></defs><g id="15c0cab266"><g clip-rule="nonzero" clip-path="url(#efbee4f384)"><path style=" stroke:none;fill-rule:nonzero;fill:#5271ff;fill-opacity:1;" d="M 148.585938 297.832031 C 148.585938 255.226562 187.335938 220.691406 187.335938 220.691406 C 187.335938 220.691406 226.082031 255.226562 226.082031 297.832031 C 226.082031 340.4375 187.335938 374.976562 187.335938 374.976562 C 187.335938 374.976562 148.585938 340.4375 148.585938 297.832031 Z M 148.585938 297.832031 "/></g><g clip-rule="nonzero" clip-path="url(#e1fe01c711)"><g clip-rule="nonzero" clip-path="url(#ffc36029d7)"><g clip-rule="nonzero" clip-path="url(#731f4fec08)"><path style=" stroke:none;fill-rule:nonzero;fill:#5170ff;fill-opacity:1;" d="M 81.75 207.488281 C 118.585938 186.082031 167.917969 202.226562 167.917969 202.226562 C 167.917969 202.226562 157.527344 253.082031 120.691406 274.492188 C 83.855469 295.898438 34.523438 279.753906 34.523438 279.753906 C 34.523438 279.753906 44.914062 228.898438 81.75 207.488281 Z M 81.75 207.488281 "/></g></g></g><g clip-rule="nonzero" clip-path="url(#8fa1b5ea82)"><g clip-rule="nonzero" clip-path="url(#cd24f7e709)"><g clip-rule="nonzero" clip-path="url(#b01e9ce823)"><path style=" stroke:none;fill-rule:nonzero;fill:#5170ff;fill-opacity:1;" d="M 254.945312 271.625 C 217.859375 250.644531 206.878906 199.914062 206.878906 199.914062 C 206.878906 199.914062 256.015625 183.195312 293.101562 204.171875 C 330.183594 225.148438 341.167969 275.878906 341.167969 275.878906 C 341.167969 275.878906 292.027344 292.601562 254.945312 271.625 Z M 254.945312 271.625 "/></g></g></g><g clip-rule="nonzero" clip-path="url(#0d0ed72565)"><path style=" stroke:none;fill-rule:nonzero;fill:#5170ff;fill-opacity:1;" d="M 226.398438 77.152344 C 226.398438 119.757812 187.648438 154.296875 187.648438 154.296875 C 187.648438 154.296875 148.902344 119.757812 148.902344 77.152344 C 148.902344 34.546875 187.648438 0.0117188 187.648438 0.0117188 C 187.648438 0.0117188 226.398438 34.546875 226.398438 77.152344 Z M 226.398438 77.152344 "/></g><g clip-rule="nonzero" clip-path="url(#9a9d4c21cc)"><g clip-rule="nonzero" clip-path="url(#15685cf435)"><g clip-rule="nonzero" clip-path="url(#249ae2a44e)"><path style=" stroke:none;fill-rule:nonzero;fill:#5170ff;fill-opacity:1;" d="M 293.234375 167.496094 C 256.398438 188.90625 207.066406 172.761719 207.066406 172.761719 C 207.066406 172.761719 217.457031 121.90625 254.292969 100.496094 C 291.128906 79.085938 340.460938 95.230469 340.460938 95.230469 C 340.460938 95.230469 330.070312 146.085938 293.234375 167.496094 Z M 293.234375 167.496094 "/></g></g></g><g clip-rule="nonzero" clip-path="url(#a7caa7dc83)"><g clip-rule="nonzero" clip-path="url(#15baba22e3)"><g clip-rule="nonzero" clip-path="url(#3ae4e3a350)"><path style=" stroke:none;fill-rule:nonzero;fill:#5170ff;fill-opacity:1;" d="M 120.039062 103.363281 C 157.125 124.339844 168.109375 175.070312 168.109375 175.070312 C 168.109375 175.070312 118.96875 191.792969 81.882812 170.816406 C 44.800781 149.835938 33.816406 99.105469 33.816406 99.105469 C 33.816406 99.105469 82.957031 82.386719 120.039062 103.363281 Z M 120.039062 103.363281 "/></g></g></g></g></svg>